<svg width="26" height="26" viewBox="0 0 26 26" xmlns="http://www.w3.org/2000/svg" xmlns:xlink="http://www.w3.org/1999/xlink"><title>Shape</title><defs><rect id="a" width="26" height="26" rx="13"/></defs><g fill="none" fill-rule="evenodd"><mask id="b" fill="#fff"><use xlink:href="#a"/></mask><rect stroke="#FFF" x=".5" y=".5" width="25" height="25" rx="12.5"/><path d="M12.823 6c-1.63.03-2.818.514-3.54 1.466-.856 1.127-1.012 2.843-.47 5.089-.2.244-.35.614-.291 1.106.116.97.504 1.374.816 1.535.15.767.574 1.626.982 2.033v.207c.003.449 0 .839-.042 1.342-.27.622-1.172.987-2.212 1.396-1.73.68-3.877 1.52-4.038 4.204l-.028.47S14.902 32.006 15.118 32c.216-.006 6.61-7.622 6.61-7.622-.16-2.684-2.301-3.524-4.024-4.204-1.035-.409-1.942-.774-2.212-1.396-.043-.502-.032-.893-.028-1.342v-.207c.396-.405.804-1.266.954-2.033.32-.16.7-.56.816-1.535.058-.482-.083-.848-.277-1.092.257-.876.783-3.159-.124-4.62-.38-.612-.957-.997-1.715-1.147C14.7 6.274 13.898 6 12.823 6z" stroke="#FFF" stroke-linejoin="round" mask="url(#b)" fill-rule="nonzero"/></g></svg>