<svg width="23" height="23" viewBox="0 0 23 23" xmlns="http://www.w3.org/2000/svg" xmlns:xlink="http://www.w3.org/1999/xlink"><title>Group 3</title><defs><path d="M15.5 30.07c8.047 0 14.57-6.523 14.57-14.57S23.547.93 15.5.93.93 7.453.93 15.5 7.453 30.07 15.5 30.07z" id="e"/><path id="a" d="M-1.09-1.09h17.36v17.36H-1.09z"/><mask id="g" x="0" y="0" width="17.36" height="17.36" fill="#fff"><use xlink:href="#a"/></mask><path id="b" d="M14.73-1.09h17.36v17.36H14.73z"/><mask id="h" x="0" y="0" width="17.36" height="17.36" fill="#fff"><use xlink:href="#b"/></mask><path id="c" d="M-1.09 14.73h17.36v17.36H-1.09z"/><mask id="i" x="0" y="0" width="17.36" height="17.36" fill="#fff"><use xlink:href="#c"/></mask><path id="d" d="M14.73 14.73h17.36v17.36H14.73z"/><mask id="j" x="0" y="0" width="17.36" height="17.36" fill="#fff"><use xlink:href="#d"/></mask></defs><g transform="rotate(45 18.328 8.672)" fill="none" fill-rule="evenodd"><mask id="f" fill="#fff"><use xlink:href="#e"/></mask><g mask="url(#f)" stroke-width="2" stroke="#FFF"><use mask="url(#g)" xlink:href="#a"/></g><g mask="url(#f)" stroke-width="2" stroke="#FFF"><use mask="url(#h)" xlink:href="#b"/></g><g mask="url(#f)" stroke-width="2" stroke="#FFF"><use mask="url(#i)" xlink:href="#c"/></g><g mask="url(#f)" stroke-width="2" stroke="#FFF"><use mask="url(#j)" xlink:href="#d"/></g></g></svg>