<svg width="32" height="32" viewBox="0 0 32 32" xmlns="http://www.w3.org/2000/svg"><title>email</title><g fill="#FFF" fill-rule="evenodd"><path d="M27 22.757C27 23.996 26.012 25 24.81 25H7.19C5.98 25 5 23.994 5 22.757v-9.088c0-.555.39-.772.855-.495l8.78 5.238c.782.467 1.949.467 2.73 0l8.78-5.238c.472-.281.855-.063.855.495v9.088z"/><path d="M27 9.243C27 8.006 26.02 7 24.81 7H7.19C5.988 7 5 8.004 5 9.243v.465c0 .554.385 1.232.857 1.514l9.61 5.733c.267.16.799.16 1.067 0l9.61-5.733c.473-.283.856-.96.856-1.514v-.465z"/></g></svg>