<svg width="530" height="338" viewBox="0 0 530 338" xmlns="http://www.w3.org/2000/svg" xmlns:xlink="http://www.w3.org/1999/xlink"><title>laptop</title><defs><path id="a" d="M.896 261.562H437.5V.513H.897v261.049z"/></defs><g fill="none" fill-rule="evenodd"><path d="M498.579 330.152H31.329c-7.149 0-12.998-5.85-12.998-12.998V27.698c0-7.15 5.85-12.998 12.998-12.998h467.25c7.149 0 12.998 5.849 12.998 12.998v289.456c0 7.149-5.85 12.998-12.998 12.998" fill="#FFF"/><path d="M268.141 22.994a3.187 3.187 0 1 1-6.374 0 3.187 3.187 0 0 1 6.374 0" fill="#D6D7D7"/><path d="M13.075 313.184c-6.458 0-11.742 5.284-11.742 11.742 0 6.458 5.26 11.107 11.719 11.107h503.757c6.458 0 11.765-4.65 11.765-11.107 0-6.458-5.284-11.742-11.742-11.742H13.075z" fill="#FFF"/><path fill="#FFF" d="M1.333 325.359h527.241v-12.175H1.333z"/><path d="M296.367 313.686c0 3.42-2.966 5.7-6.59 5.7h-49.645c-3.625 0-6.59-2.28-6.59-5.7h62.825z" fill="#D6D7D7"/><path fill="#54E3AC" d="M32.538 292.027h463.961V30.978H32.538z"/><g transform="translate(59 30.465)"><mask id="b" fill="#fff"><use xlink:href="#a"/></mask><path d="M53.538 93.955a7.804 7.804 0 1 1-15.608 0 7.804 7.804 0 0 1 15.608 0m30.483 0a7.804 7.804 0 1 1-15.608 0 7.804 7.804 0 0 1 15.608 0m30.483 0a7.804 7.804 0 1 1-15.608 0 7.804 7.804 0 0 1 15.608 0m30.484 0a7.804 7.804 0 1 1-15.609 0 7.804 7.804 0 0 1 15.609 0M3.177 122.488h153.894v-9.12H3.177zm0 36.478H173.03v-9.12H3.177zm0 36.479H166.19v-9.12H3.177zm-.001-54.718h182.393v-9.12H3.176zM48.775 35.851h74.097v-9.12H48.775zm0 18.239h87.776v-9.12H48.775zM3.176 177.206h182.393v-9.12H3.176zM35.096 43.83c0 9.445-7.656 17.1-17.1 17.1-9.443 0-17.1-7.655-17.1-17.1 0-9.443 7.657-17.098 17.1-17.098 9.444 0 17.1 7.655 17.1 17.099M3.176 314h182.393v-98.036H3.176zm243.951-158.454h118.555V57.51H247.127zm153.894 0h118.555V57.51H401.021z" fill="#2ECC8F" mask="url(#b)"/></g></g></svg>