<svg width="530" height="338" viewBox="0 0 530 338" xmlns="http://www.w3.org/2000/svg"><title>laptop</title><g fill="none" fill-rule="evenodd"><path fill="#FFF" d="M238.21 278.517h243.194v-71.46H238.21z"/><path d="M469.96 234.244a1.4 1.4 0 0 1-1.4 1.398h-11.507a1.399 1.399 0 0 1-1.399-1.398v-11.498c0-.772.627-1.397 1.4-1.397h11.506c.773 0 1.4.625 1.4 1.397v11.498z" fill="#FF5C3E"/><path fill="#FFF" d="M466.626 227.97h-2.86v-2.86h-1.431v2.86h-2.861v1.429h2.86v2.858h1.431v-2.858h2.861z"/><path fill="#D6D7D7" d="M322.612 251.362h108.723v-7.146H322.612zm0-15.722h114.445v-12.862H322.612zm0 30.014H442.78v-7.146H322.612zm-84.402 12.863h70.097v-71.46H238.21z"/></g></svg>