<svg width="530" height="338" viewBox="0 0 530 338" xmlns="http://www.w3.org/2000/svg"><title>laptop</title><g fill="none" fill-rule="evenodd"><path fill="#FFF" d="M155.46 246.486h220.217V70.58H155.46z"/><path d="M367.098 236.452c0 .802-.65 1.453-1.453 1.453h-11.394c-.802 0-1.453-.65-1.453-1.453v-11.394c0-.803.65-1.454 1.453-1.454h11.394c.802 0 1.453.65 1.453 1.454v11.394z" fill="#FF5C3E"/><path fill="#FFF" d="M364.238 229.325h-2.86v-2.86h-2.86v2.86h-2.86v2.86h2.86v2.86h2.86v-2.86h2.86z"/><path fill="#D6D7D7" d="M201.22 172.12h137.278v-8.581H201.22zm-11.44 15.731h163.018v-7.15H189.78z"/><path fill="#1ECE8E" d="M225.198 226.465h88v-24.313h-88z"/><path d="M272.601 116.651l4.861-5.793a5.998 5.998 0 0 0-.736-8.457 6.007 6.007 0 0 0-8.456.744l-4.861 5.793a5.996 5.996 0 0 0 .734 8.456l.247.207 1.285-1.532-.247-.208a3.996 3.996 0 0 1-.487-5.638l4.86-5.792a4.007 4.007 0 0 1 5.64-.498 3.998 3.998 0 0 1 .49 5.64l-4.862 5.793 1.532 1.285z" fill="#D7D8D8"/><path d="M260.27 113.95l-4.862 5.792a5.998 5.998 0 0 0 .736 8.458 6.007 6.007 0 0 0 8.457-.744l4.86-5.793a5.996 5.996 0 0 0-.733-8.456l-.247-.207-1.286 1.532.247.207a3.996 3.996 0 0 1 .488 5.638l-4.861 5.793a4.007 4.007 0 0 1-5.64.497 3.998 3.998 0 0 1-.488-5.64l4.86-5.792-1.532-1.286z" fill="#D7D8D8"/><path d="M291 115c0-13.255-10.745-24-24-24s-24 10.745-24 24 10.745 24 24 24 24-10.745 24-24zm-50 0c0-14.36 11.64-26 26-26s26 11.64 26 26-11.64 26-26 26-26-11.64-26-26z" fill="#D7D8D8"/></g></svg>