<svg width="530" height="338" viewBox="0 0 530 338" xmlns="http://www.w3.org/2000/svg"><title>laptop</title><g fill="none" fill-rule="evenodd"><path d="M481.847 52.205c0 4.531-3.662 8.204-8.18 8.204s-8.18-3.673-8.18-8.204c0-4.532 3.662-8.205 8.18-8.205s8.18 3.673 8.18 8.205" fill="#717272"/><path d="M452.37 60.604c-4.518 0-8.18-3.673-8.18-8.204 0-4.532 3.662-8.205 8.18-8.205s8.18 3.673 8.18 8.205c0 4.531-3.662 8.204-8.18 8.204z" fill="#34A8D0"/><path d="M439.36 52.205c0 4.531-3.662 8.204-8.18 8.204S423 56.736 423 52.205c0-4.532 3.662-8.205 8.18-8.205s8.18 3.673 8.18 8.205" fill="#395C92"/></g></svg>