<svg width="530" height="338" viewBox="0 0 530 338" xmlns="http://www.w3.org/2000/svg"><title>laptop</title><g fill="none" fill-rule="evenodd"><path fill="#FFF" d="M156.533 246.087H376.75V70.181H156.533z"/><path d="M368.171 236.053c0 .802-.65 1.453-1.453 1.453h-11.394c-.802 0-1.453-.65-1.453-1.453V224.66c0-.803.65-1.454 1.453-1.454h11.394c.802 0 1.453.65 1.453 1.454v11.394z" fill="#FF5C3E"/><path fill="#FFF" d="M365.311 228.926h-2.86v-2.86h-2.86v2.86h-2.86v2.86h2.86v2.86h2.86v-2.86h2.86z"/><path fill="#D6D7D7" d="M202.293 171.72H339.57v-8.58H202.293zm-11.44 15.732H353.87v-7.15H190.853zm24.31 38.614h81.508v-24.313h-81.508z"/><path fill="#2ECC8F" d="M296.671 226.066h28.6v-24.313h-28.6z"/><path d="M292 116.092c0-13.255-10.745-24-24-24s-24 10.745-24 24c0 13.254 10.745 24 24 24s24-10.746 24-24zm-50 0c0-14.36 11.64-26 26-26s26 11.64 26 26c0 14.359-11.64 26-26 26s-26-11.641-26-26z" fill="#D7D8D8"/><path d="M255.073 123.602a2.999 2.999 0 0 0 2.995 2.999h21.208a3.002 3.002 0 0 0 2.995-2.999V108.6a2.999 2.999 0 0 0-2.995-2.999h-21.208a3.002 3.002 0 0 0-2.995 2.999v15.002zm2.995-20.001h21.208a4.999 4.999 0 0 1 4.995 4.999v15.002a5.002 5.002 0 0 1-4.995 4.999h-21.208a4.999 4.999 0 0 1-4.995-4.999V108.6a5.002 5.002 0 0 1 4.995-4.999z" fill="#D7D8D8"/><path d="M268.127 117.925a1 1 0 0 0 1.124.01l11.761-7.83-1.108-1.665-11.761 7.831 1.123.01-11.92-8.258-1.139 1.645 11.92 8.257z" fill="#D7D8D8"/></g></svg>