<svg width="61" height="124" viewBox="0 0 61 124" xmlns="http://www.w3.org/2000/svg"><title>phone</title><g fill="none" fill-rule="evenodd"><path d="M52.91 25.826c0 2.666-2.173 4.827-4.853 4.827-2.68 0-4.853-2.161-4.853-4.827 0-2.665 2.173-4.826 4.853-4.826 2.68 0 4.852 2.16 4.852 4.826" fill="#717272"/><path d="M35.423 30.767c-2.68 0-4.853-2.16-4.853-4.826 0-2.666 2.173-4.826 4.853-4.826 2.68 0 4.852 2.16 4.852 4.826 0 2.666-2.172 4.826-4.852 4.826z" fill="#34A8D0"/><path d="M27.705 25.826c0 2.666-2.172 4.827-4.853 4.827-2.68 0-4.852-2.161-4.852-4.827C18 23.161 20.172 21 22.852 21s4.853 2.16 4.853 4.826" fill="#395C92"/></g></svg>