<svg width="61" height="124" viewBox="0 0 61 124" xmlns="http://www.w3.org/2000/svg"><title>phone</title><g fill="none" fill-rule="evenodd"><path fill="#FFF" d="M7.003 98.906l47.564-.006V84.943l-47.564.005z"/><path d="M53.543 90.259c0 .15-.126.273-.281.273H50.95a.277.277 0 0 1-.281-.273v-2.246c0-.15.126-.273.281-.273h2.31c.156 0 .282.122.282.273v2.246z" fill="#FF5C3E"/><path fill="#FFF" d="M52.867 89.049h-.575v-.559h-.287v.559h-.575v.279h.575v.558h.287v-.558h.575z"/><path fill="#D6D7D7" d="M23.953 93.602h21.833v-1.396H23.953zm0-3.071h22.982V88.02H23.953zm0 5.862h24.131v-1.395H23.953zM6.545 98.877l14.535.029V84.948L6.545 84.92z"/></g></svg>