<svg width="61" height="124" viewBox="0 0 61 124" xmlns="http://www.w3.org/2000/svg"><title>phone</title><g fill="none" fill-rule="evenodd"><path fill="#FFF" d="M8.604 79.173h43.848V43.68H8.604z"/><path d="M50.744 77.148c0 .162-.13.293-.29.293h-2.268a.291.291 0 0 1-.29-.293V74.85c0-.162.13-.293.29-.293h2.269c.16 0 .289.13.289.293v2.3z" fill="#FF5C3E"/><path fill="#FFF" d="M50.174 75.71h-.569v-.577h-.57v.577h-.569v.577h.57v.577h.569v-.577h.57z"/><path fill="#D6D7D7" d="M17.716 64.168h27.333v-1.732H17.716zm-2.278 3.174h32.459v-1.443h-32.46zm2.135 8.871h20.234v-7.065H17.573z"/><path fill="#3D3F8B" d="M37.807 76.213h7.1v-7.065h-7.1z"/><path d="M34.976 52.943c0-2.348-1.873-4.246-4.177-4.246-2.304 0-4.177 1.898-4.177 4.246 0 2.348 1.873 4.246 4.177 4.246 2.304 0 4.177-1.898 4.177-4.246zm-9.354 0c0-2.897 2.318-5.246 5.177-5.246 2.859 0 5.177 2.349 5.177 5.246 0 2.897-2.318 5.246-5.177 5.246-2.86 0-5.177-2.349-5.177-5.246z" fill="#D7D8D8"/><path d="M28.827 54.47c0-.002 4.213-.003 4.213-.003l-.002-3.048c0 .003-4.213.004-4.213.004l.002 3.048zm-.002-4.047h4.215c.552 0 .998.448.998.996v3.052c0 .55-.446.996-.998.996h-4.215a.998.998 0 0 1-.998-.996v-3.052c0-.55.446-.996.998-.996z" fill="#D7D8D8"/><path d="M30.65 53.557a.5.5 0 0 0 .567.005l2.342-1.58-.56-.83-2.341 1.58.567.006-2.374-1.666-.574.818 2.373 1.667z" fill="#D7D8D8"/></g></svg>