<svg width="61" height="124" viewBox="0 0 61 124" xmlns="http://www.w3.org/2000/svg"><title>phone</title><g fill="none" fill-rule="evenodd"><path d="M53.213 122H7.837C4.077 122 1 118.904 1 115.12V7.29C1 3.506 4.077.41 7.837.41h45.376c3.76 0 6.836 3.096 6.836 6.88v107.83c0 3.784-3.076 6.88-6.836 6.88" fill="#FFF"/><path fill="#3D4187" d="M5.595 99.518h49.866V17.492H5.595z"/><path d="M35.648 111.626a5.217 5.217 0 1 1-10.435 0 5.217 5.217 0 0 1 10.435 0M32.475 8.722a2.044 2.044 0 1 1-4.088 0 2.044 2.044 0 0 1 4.088 0" fill="#D6D7D7"/><path fill="#1E2143" d="M11.015 29.778h32.883v-7.227H11.015zM9.932 53.265h35.412v-2.891H9.932zM9.931 65.19h39.026v-2.891H9.931zm.001 11.924h37.58v-2.891H9.932zm-.001-17.706h42.278v-2.891H9.931zm16.261-21.319h20.236v-2.891H26.192zm.001 5.781h24.21v-2.891h-24.21zM9.931 71.333h42.278v-2.891H9.931zm11.564-31.98a5.601 5.601 0 1 1-11.203 0 5.601 5.601 0 0 1 11.203 0"/></g></svg>