<svg width="61" height="124" viewBox="0 0 61 124" xmlns="http://www.w3.org/2000/svg" xmlns:xlink="http://www.w3.org/1999/xlink"><title>phone</title><defs><ellipse id="a" cx="22.301" cy="9.08" rx="5.177" ry="5.246"/><mask id="b" x="0" y="0" width="10.354" height="10.492" fill="#fff"><use xlink:href="#a"/></mask></defs><g transform="translate(8.498 43.643)" fill="none" fill-rule="evenodd"><path fill="#FFF" d="M.092 35.61H43.94V.117H.092z"/><path d="M42.231 33.585c0 .162-.13.294-.289.294h-2.269a.291.291 0 0 1-.289-.294v-2.299c0-.162.13-.293.29-.293h2.268c.16 0 .29.131.29.293v2.3z" fill="#FF5C3E"/><path fill="#FFF" d="M41.662 32.147h-.57v-.577h-.569v.577h-.57v.577h.57v.578h.57v-.578h.569z"/><path fill="#D6D7D7" d="M9.203 20.605h27.334v-1.731H9.203zM6.925 23.78h32.459v-1.444H6.925z"/><path fill="#3D3F8B" d="M10.727 32.285H34.75V25.95H10.727z"/><path d="M23.416 9.413l.968-1.169a1.221 1.221 0 0 0-.147-1.706 1.185 1.185 0 0 0-1.684.15l-.967 1.169a1.221 1.221 0 0 0 .146 1.706l.049.041.648-.761-.05-.042a.221.221 0 0 1-.023-.307l.968-1.168a.185.185 0 0 1 .265-.027.22.22 0 0 1 .024.307l-.967 1.17.77.637z" fill="#D7D8D8"/><path d="M20.96 8.868l-.967 1.169a1.221 1.221 0 0 0 .146 1.706c.504.429 1.26.363 1.684-.15l.968-1.169a1.221 1.221 0 0 0-.146-1.706l-.05-.042-.647.762.049.042c.088.075.1.214.024.306l-.968 1.17a.185.185 0 0 1-.266.025.221.221 0 0 1-.024-.307l.968-1.168-.77-.638z" fill="#D7D8D8"/><use stroke="#D7D8D8" mask="url(#b)" stroke-width="2" stroke-linejoin="round" xlink:href="#a"/></g></svg>