<svg width="151" height="221" viewBox="0 0 151 221" xmlns="http://www.w3.org/2000/svg"><title>tablet</title><g fill="none" fill-rule="evenodd"><path d="M141.164 219.513H9.717c-4.29 0-7.8-3.51-7.8-7.8V9.796c0-4.292 3.51-7.801 7.8-7.801h131.447c4.29 0 7.8 3.51 7.8 7.8v201.92c0 4.29-3.51 7.8-7.8 7.8z" fill="#FFF"/><path d="M81.393 205.925a5.953 5.953 0 1 1-11.905 0 5.953 5.953 0 0 1 11.905 0" fill="#D6D7D7"/><path fill="#FADD9B" d="M6.958 194.769h137.136V21.611H6.958z"/><path fill="#FBBC31" d="M41.083 61.425h51.189v-7.584H41.083zm0 10.743h68.884v-7.584H41.083zm6.467 40.489a2.914 2.914 0 1 1-5.827 0 2.914 2.914 0 0 1 5.827 0m11.382 0a2.914 2.914 0 1 1-5.828 0 2.914 2.914 0 0 1 5.828 0m11.381 0a2.914 2.914 0 1 1-5.827 0 2.914 2.914 0 0 1 5.827 0m11.382 0a2.914 2.914 0 1 1-5.828 0 2.914 2.914 0 0 1 5.828 0m11.381 0a2.914 2.914 0 1 1-5.827 0 2.914 2.914 0 0 1 5.827 0m-53.257 10.7h57.509v-3.16H39.819zm.001 13.904h63.828v-3.792H39.82zm-.001 13.271h61.301v-3.16H39.819zm.001-20.223h68.252v-3.792H39.82zm17.063-39.182h27.806v-3.792H56.883zm0 6.32h32.862v-3.16H56.883zM39.82 143.58h68.252v-3.16H39.82zm12.639-49.461a6.488 6.488 0 0 1-6.488 6.488h-.295a6.488 6.488 0 0 1-6.488-6.488v-.295a6.487 6.487 0 0 1 6.488-6.488h.295a6.488 6.488 0 0 1 6.488 6.488v.295zM39.82 194.769h68.252v-36.654H39.82z"/></g></svg>