<svg width="151" height="221" viewBox="0 0 151 221" xmlns="http://www.w3.org/2000/svg"><title>tablet</title><g fill="none" fill-rule="evenodd"><path fill="#FFF" d="M15.256 158.713H137.82V60.325H15.256z"/><path d="M133.046 153.1a.81.81 0 0 1-.81.813h-6.34a.81.81 0 0 1-.81-.813v-6.372c0-.45.363-.814.81-.814h6.34c.447 0 .81.364.81.814v6.372z" fill="#FF5C3E"/><path fill="#FFF" d="M131.454 149.114h-1.592v-1.6h-1.592v1.6h-1.591v1.6h1.591v1.6h1.592v-1.6h1.592z"/><path fill="#D6D7D7" d="M40.724 117.118h76.404v-4.8H40.724zm-6.367 8.799h90.73v-4h-90.73z"/><path fill="#FEBE12" d="M54.07 147.514h48.977v-13.598H54.07z"/><path d="M80.452 86.093l2.706-3.24a3.366 3.366 0 0 0-.41-4.73 3.332 3.332 0 0 0-4.707.416l-2.705 3.24a3.365 3.365 0 0 0 .409 4.73l.137.115 1.29-1.529-.138-.116a1.365 1.365 0 0 1-.163-1.918l2.706-3.24a1.332 1.332 0 0 1 1.882-.17c.572.483.647 1.341.163 1.92l-2.705 3.24 1.535 1.282z" fill="#D7D8D8"/><path d="M73.589 84.582l-2.706 3.24a3.366 3.366 0 0 0 .41 4.73A3.332 3.332 0 0 0 76 92.136l2.705-3.24a3.365 3.365 0 0 0-.409-4.73l-.137-.115-1.29 1.529.138.116c.572.482.646 1.34.163 1.918l-2.706 3.24a1.332 1.332 0 0 1-1.882.17 1.366 1.366 0 0 1-.163-1.92l2.705-3.24-1.535-1.282z" fill="#D7D8D8"/><path d="M89.805 85.17c0-6.93-5.585-12.543-12.47-12.543-6.885 0-12.47 5.613-12.47 12.542 0 6.93 5.585 12.543 12.47 12.543 6.885 0 12.47-5.613 12.47-12.543zm-26.94 0c0-8.032 6.478-14.543 14.47-14.543 7.992 0 14.47 6.511 14.47 14.542 0 8.032-6.478 14.543-14.47 14.543-7.992 0-14.47-6.511-14.47-14.543z" fill="#D7D8D8"/></g></svg>