<svg width="151" height="221" viewBox="0 0 151 221" xmlns="http://www.w3.org/2000/svg"><title>tablet</title><g fill="none" fill-rule="evenodd"><path fill="#FFF" d="M10.113 191.739H140.68V153.03H10.113z"/><path d="M134.536 167.757a.754.754 0 0 1-.751.757h-6.179a.754.754 0 0 1-.75-.757v-6.228c0-.418.336-.756.75-.756h6.179c.414 0 .75.338.75.756v6.228z" fill="#FF5C3E"/><path fill="#FFF" d="M132.57 164.169h-1.536v-1.548h-.768v1.548h-1.536v.774h1.536v1.548h.768v-1.548h1.536z"/><path fill="#D6D7D7" d="M55.427 177.03H113.8v-3.871H55.427zm0-8.516h61.444v-6.968H55.427zm0 16.257h64.516v-3.87H55.427zm-45.314 6.968h37.634V153.03H10.113z"/></g></svg>