<svg width="151" height="221" viewBox="0 0 151 221" xmlns="http://www.w3.org/2000/svg"><title>tablet</title><g fill="none" fill-rule="evenodd"><path fill="#FFF" d="M15.297 159.49H137.86V61.1H15.297z"/><path d="M133.086 153.877a.81.81 0 0 1-.808.813h-6.342a.81.81 0 0 1-.809-.813v-6.373a.81.81 0 0 1 .809-.813h6.342a.81.81 0 0 1 .808.813v6.373z" fill="#FF5C3E"/><path fill="#FFF" d="M131.494 149.89h-1.591v-1.599h-1.592v1.6h-1.592v1.6h1.592v1.6h1.592v-1.6h1.591z"/><path fill="#D6D7D7" d="M40.765 117.895h76.403v-4.8H40.765zm-6.367 8.799h90.73v-4h-90.73zm13.53 21.596h45.364v-13.597H47.928z"/><path fill="#FEBE12" d="M93.292 148.29h15.918v-13.597H93.292z"/><path d="M89.805 86.78c0-6.93-5.585-12.542-12.47-12.542-6.885 0-12.47 5.613-12.47 12.542 0 6.93 5.585 12.542 12.47 12.542 6.885 0 12.47-5.613 12.47-12.542zm-26.94 0c0-8.032 6.478-14.542 14.47-14.542 7.992 0 14.47 6.51 14.47 14.542s-6.478 14.542-14.47 14.542c-7.992 0-14.47-6.51-14.47-14.542z" fill="#D7D8D8"/><path d="M71.027 88.768a3.007 3.007 0 0 0 3 3.009h7.365a3.002 3.002 0 0 0 2.999-3.009v-3.966a3.007 3.007 0 0 0-3-3.008h-7.365a3.002 3.002 0 0 0-2.999 3.008v3.966zm3-8.974h7.365a5.007 5.007 0 0 1 4.999 5.008v3.966a5.002 5.002 0 0 1-5 5.009h-7.365a5.007 5.007 0 0 1-4.999-5.009v-3.966a5.002 5.002 0 0 1 5-5.008z" fill="#D7D8D8"/><path d="M77.151 88.167a1 1 0 0 0 1.128.01l6.546-4.38-1.113-1.662-6.545 4.38 1.127.01-6.634-4.619-1.143 1.642 6.634 4.619z" fill="#D7D8D8"/></g></svg>