<svg width="151" height="221" viewBox="0 0 151 221" xmlns="http://www.w3.org/2000/svg"><title>tablet</title><g fill="none" fill-rule="evenodd"><path d="M136.875 40.757c0 3.732-2.979 6.757-6.654 6.757-3.676 0-6.655-3.025-6.655-6.757 0-3.732 2.979-6.757 6.655-6.757 3.675 0 6.654 3.025 6.654 6.757" fill="#717272"/><path d="M112.894 47.674c-3.675 0-6.655-3.025-6.655-6.757 0-3.732 2.98-6.756 6.655-6.756 3.676 0 6.655 3.024 6.655 6.756s-2.98 6.757-6.655 6.757z" fill="#34A8D0"/><path d="M102.31 40.757c0 3.732-2.98 6.757-6.655 6.757-3.676 0-6.655-3.025-6.655-6.757C89 37.025 91.98 34 95.655 34c3.675 0 6.654 3.025 6.654 6.757" fill="#395C92"/></g></svg>