<svg width="69" height="60" viewBox="0 0 69 60" xmlns="http://www.w3.org/2000/svg"><title>Twitter</title><g fill="none" fill-rule="evenodd"><path fill="#1DA1F2" d="M0 0h69v60H0z"/><path d="M55.117 20.482a15.38 15.38 0 0 1-4.418 1.211 7.715 7.715 0 0 0 3.382-4.255 15.404 15.404 0 0 1-4.884 1.866 7.682 7.682 0 0 0-5.615-2.429 7.692 7.692 0 0 0-7.692 7.692c0 .603.068 1.19.2 1.753-6.394-.321-12.061-3.383-15.855-8.037a7.656 7.656 0 0 0-1.041 3.867 7.688 7.688 0 0 0 3.422 6.402 7.661 7.661 0 0 1-3.485-.962v.097a7.696 7.696 0 0 0 6.17 7.542 7.702 7.702 0 0 1-3.474.132 7.7 7.7 0 0 0 7.186 5.342 15.434 15.434 0 0 1-9.553 3.292c-.62 0-1.233-.036-1.835-.107a21.772 21.772 0 0 0 11.791 3.456c14.148 0 21.885-11.72 21.885-21.885 0-.334-.008-.666-.022-.995a15.634 15.634 0 0 0 3.838-3.982" fill="#FFF"/></g></svg>