<svg width="200" height="214" viewBox="0 0 200 214" xmlns="http://www.w3.org/2000/svg" xmlns:xlink="http://www.w3.org/1999/xlink"><title>Group 9</title><defs><linearGradient x1="-29.069%" y1="-35.575%" y2="86.184%" id="c"><stop stop-color="#0088F7" offset="0%"/><stop stop-color="#1EC6CE" offset="100%"/></linearGradient><path d="M49.598 153.882V32.413c0-5.533 4.49-10.018 10.03-10.018h2.234c1.889 0 1.601 1.018 3.588 1.018 1.986 0 1.392-1.018 3.861-1.018h91.09c3.498 0 6.333 2.833 6.333 6.319v110.51a6.323 6.323 0 0 1-6.328 6.319h-17.344" id="a"/><mask id="d" x="0" y="0" width="117.136" height="131.487" fill="#fff"><use xlink:href="#a"/></mask><path d="M143.285 143.566H68.227c-1.36 0-2.73.917-4.09.917-1.05 0-2.082-.917-3.132-.917h-1.382c-5.537 0-10.025 4.48-10.025 10.01 0 5.528 4.489 10.01 10.016 10.01h1.39c1.012 0 2.121-1.077 3.133-1.077 1.113 0 2.978 1.076 4.09 1.076h92.166c3.502 0 6.34-2.83 6.34-6.327V138.38" id="b"/><mask id="e" x="0" y="0" width="117.136" height="25.204" fill="#fff"><use xlink:href="#b"/></mask></defs><g transform="translate(1 1)" stroke="url(#c)" fill="none" fill-rule="evenodd"><use mask="url(#d)" stroke-width="4" xlink:href="#a"/><path d="M159 144.465s-1.265 2.856-1.265 6.003c0 3.148 1.265 5.546 1.265 5.546H69.204s-3.154-.919-5.391-.919c-2.238 0-2.986.598-5.523.598-2.537 0-1.476-11.228-1.476-11.228" stroke-width="2"/><path d="M125.376 87.218h-11.793v11.637h-7.863V87.218H93.926V79.46h11.794V67.823h7.863V79.46h11.793v7.758zm-39.312-34.91c-4.325 0-7.863 3.49-7.863 7.757v46.548c0 4.267 3.538 7.758 7.863 7.758h47.175c4.324 0 7.863-3.491 7.863-7.758V60.065c0-4.267-3.539-7.758-7.863-7.758H86.064z" stroke-width="2" fill="#FFF"/><use mask="url(#e)" stroke-width="4" xlink:href="#b"/><path stroke-width="2" fill="#FFF" d="M71.798 152.312v29.606l7.459-7.448 7.471 7.46v-30.187z"/><path d="M83.06 48.355c-4.876 0-8.864 3.936-8.864 8.746v52.476c0 4.81 3.988 8.746 8.863 8.746h53.184c4.875 0 8.864-3.936 8.864-8.746V57.1c0-4.81-3.989-8.746-8.864-8.746H83.06z" stroke-width="2" stroke-dasharray="5,4"/><path d="M184.92 15.76h5.244c4.33 0 7.836-3.504 7.836-7.827 0-4.313-3.508-7.826-7.836-7.826h-10.328c-4.33 0-7.836 3.504-7.836 7.826 0 4.314 3.508 7.826 7.836 7.826h1.219c-.04 1.633-.65 3.129-.65 3.129s2.922-1.223 4.515-3.129zM16.636 72.909H9.945C4.46 72.909 0 68.452 0 62.954S4.452 53 9.945 53h13.18c5.485 0 9.945 4.457 9.945 9.954 0 5.5-4.452 9.955-9.944 9.955h-1.573c.05 2.077.826 3.979.826 3.979s-3.716-1.556-5.743-3.98zm117.621 111.213h12.1c7.469 0 13.517 6.044 13.517 13.5 0 7.457-6.051 13.5-13.517 13.5h-17.815c-7.468 0-13.517-6.044-13.517-13.5 0-7.056 5.418-12.845 12.324-13.448-.42-2.836-1.324-5.052-1.324-5.052s4.522 1.893 8.232 5z" stroke-width="2"/></g></svg>