<svg width="187" height="187" viewBox="0 0 187 187" xmlns="http://www.w3.org/2000/svg"><title>WP-PLUG</title><defs><linearGradient x1="-29.069%" y1="-35.575%" y2="86.184%" id="a"><stop stop-color="#0088F7" offset="0%"/><stop stop-color="#1EC6CE" offset="100%"/></linearGradient><linearGradient x1="-29.069%" y1="-35.575%" y2="86.184%" id="b"><stop stop-color="#0088F7" offset="0%"/><stop stop-color="#0DA4E5" offset="44.81%"/><stop stop-color="#1EC6CE" offset="100%"/></linearGradient></defs><g transform="translate(1 1)" stroke-width="2" fill="none" fill-rule="evenodd"><circle stroke="url(#a)" cx="92.5" cy="92.5" r="91.732"/><path d="M146.694 33.768c-14.203-12.938-33.087-20.826-53.813-20.826-27.906 0-52.472 14.3-66.771 35.97 1.58.25 3.835.492 6.612.492 5.684 0 18.477-1.42 20.714-1.42 2.236 0 2.395 2.203 2.395 3.573s-1.414 2.759-3.651 2.759h-9.172l29.403 87.35 18.029-52.15-12.738-34.39s-6.549-.83-8.189-.83c-1.64 0-2.77-1.591-2.77-3.75s1.587-2.612 3.533-2.612S82.97 48.99 88.613 48.99s21.568-1.112 23.594-1.112 2.945 1.514 2.945 3.363c0 1.848-1.31 3.233-3.504 3.233s-8.68.04-8.68.04l28.692 86.558 13.029-41.806s2.109-7.588 2.109-9.621c0-18.654-15.138-29.423-15.138-42.04 0-7.888 5.444-14.107 13.015-14.107.68 0 1.354.095 2.02.27zm14.51 17.592c7.37 12.102 11.615 26.315 11.615 41.52 0 30.253-16.806 56.581-41.59 70.157l24.205-69.33s6.135-15.1 6.927-27.675c.383-6.084-.325-11.107-1.157-14.672zm-41.605 116.885a79.807 79.807 0 0 1-26.718 4.574 79.937 79.937 0 0 1-23.178-3.412L93.737 98.42l25.862 69.825zM20.194 59.565c-4.656 10.142-7.252 21.426-7.252 33.316 0 31.76 18.523 59.195 45.356 72.09L20.194 59.566z" stroke="url(#b)"/><path d="M93.5 118c13.531 0 24.5-10.969 24.5-24.5S107.031 69 93.5 69 69 79.969 69 93.5 79.969 118 93.5 118z" stroke="url(#a)" fill="#FFF"/><path d="M85.642 83.128L86 91.762" stroke="url(#a)"/><path d="M101 83.31l.384 8.452" stroke="url(#a)" transform="matrix(-1 0 0 1 202.384 0)"/><path d="M89.555 99.416s-.88 6.24 4.409 6.24c1.05 0 1.862-.247 2.486-.642 2.518-1.592 2.007-5.598 2.007-5.598h-8.902z" stroke="url(#a)"/></g></svg>