<svg width="166" height="151" viewBox="0 0 166 151" xmlns="http://www.w3.org/2000/svg" xmlns:xlink="http://www.w3.org/1999/xlink"><title>Group 8</title><defs><linearGradient x1="-29.069%" y1="-35.575%" y2="86.184%" id="h"><stop stop-color="#0088F7" offset="0%"/><stop stop-color="#1EC6CE" offset="100%"/></linearGradient><rect id="a" x="31.698" width="133.609" height="116.745" rx="4"/><mask id="i" x="0" y="0" width="133.609" height="116.745" fill="#fff"><use xlink:href="#a"/></mask><path id="b" d="M41.467 10.152h113.414v82.954H41.467z"/><mask id="j" x="0" y="0" width="113.414" height="82.954" fill="#fff"><use xlink:href="#b"/></mask><path d="M124.25 102.135v4.205a4.252 4.252 0 0 1-4.25 4.254H88.541a4.253 4.253 0 0 1-4.252-4.248v-4.248" id="c"/><mask id="k" x="0" y="0" width="39.961" height="8.497" fill="#fff"><use xlink:href="#c"/></mask><rect id="d" width="64.377" height="109.977" rx="3"/><mask id="l" x="0" y="0" width="64.377" height="109.977" fill="#fff"><use xlink:href="#d"/></mask><path id="e" d="M0 13.536h64.377v79.522H0z"/><mask id="m" x="0" y="0" width="64.377" height="79.522" fill="#fff"><use xlink:href="#e"/></mask><path d="M0 2.999A2.995 2.995 0 0 1 2.991 0h34.253a2.995 2.995 0 0 1 2.992 2.999v75.216a2.995 2.995 0 0 1-2.992 2.999H2.991A2.995 2.995 0 0 1 0 78.215V3z" id="f"/><mask id="n" x="0" y="0" width="40.236" height="81.214" fill="#fff"><use xlink:href="#f"/></mask><path id="g" d="M0 13.536h40.236v50.758H0z"/><mask id="o" x="0" y="0" width="40.236" height="50.759" fill="#fff"><use xlink:href="#g"/></mask></defs><g fill="none" fill-rule="evenodd"><use stroke="url(#h)" mask="url(#i)" stroke-width="4" fill="#FFF" xlink:href="#a"/><use stroke="url(#h)" mask="url(#j)" stroke-width="4" fill="#FFF" xlink:href="#b"/><use stroke="url(#h)" mask="url(#k)" stroke-width="4" fill="#FFF" xlink:href="#c"/><path d="M30.997 102.098l131.942-.673" stroke="url(#h)" stroke-width="2" stroke-linecap="square" fill="#FFF"/><g transform="translate(0 28.763)"><use stroke="url(#h)" mask="url(#l)" stroke-width="4" fill="#FFF" xlink:href="#d"/><use stroke="url(#h)" mask="url(#m)" stroke-width="4" fill="#FFF" xlink:href="#e"/><ellipse fill="url(#h)" cx="32.179" cy="8.456" rx="1.599" ry="1.688"/><ellipse stroke="url(#h)" stroke-width="2" fill="#FFF" cx="33.809" cy="99.851" rx="3.229" ry="3.409"/></g><g transform="translate(54.887 69.64)"><use stroke="url(#h)" mask="url(#n)" stroke-width="4" fill="#FFF" xlink:href="#f"/><use stroke="url(#h)" mask="url(#o)" stroke-width="4" fill="#FFF" xlink:href="#g"/><ellipse fill="url(#h)" cx="20.913" cy="8.456" rx="1.599" ry="1.688"/><ellipse stroke="url(#h)" stroke-width="2" fill="#FFF" cx="20.933" cy="71.088" rx="3.229" ry="3.409"/></g><ellipse stroke="url(#h)" stroke-width="2" fill="url(#h)" cx="100.008" cy="5.942" rx="1.599" ry="1.688"/><g transform="translate(82.509 36.284)" stroke="url(#h)" stroke-width="2"><path d="M20.087 5.23c-5.515-2.69-12.162-.406-14.848 5.1-2.685 5.506-.391 12.15 5.123 14.84 5.515 2.69 12.163.406 14.848-5.1 1.898-3.89 1.09-5.943 1.09-5.943"/><path d="M10.685 13.739l4.354 4.346L28.546 4.6"/></g><g transform="translate(64.828 95.123)" stroke="url(#h)" stroke-width="2"><path d="M14.255 3.712c-3.913-1.909-8.631-.289-10.537 3.619-1.906 3.907-.278 8.622 3.636 10.531 3.914 1.909 8.632.289 10.537-3.619 1.347-2.76.773-4.218.773-4.218"/><path d="M7.583 9.75l3.09 3.085 9.585-9.57"/></g><g transform="translate(21.61 71.587)" stroke="url(#h)" stroke-width="2"><path d="M15.551 4.05c-4.27-2.083-9.416-.315-11.495 3.947-2.079 4.263-.303 9.407 3.967 11.489 4.27 2.082 9.416.315 11.495-3.948 1.469-3.011.843-4.601.843-4.601"/><path d="M8.272 10.636l3.37 3.366L22.1 3.562"/></g></g></svg>